- 
http://www.Speed.Cd 
       
http://www.Speed.Cd      fast  and The Hottest Private Tracker on the net

(((--Submit for invite!!--)))

Please Seed back to make the speed Faster!!!

------------------nfo--------------------------
-








































          
          
              
              
                    
                    
                    
                    

I.Spit.on.Your.Grave.UNRATED.2010.BRRip.Xvid.AC3-SiC

Poster:
[img]http://img51.imageshack.us/img51/2856/204c362c89832093.jpg[/img]

IMDB Link:
http://www.imdb.com/title/tt1242432/

Description:
A writer who is brutalized during her cabin retreat
seeks revenge on her attackers, who left her for dead.

MediaInfo:
General
Complete name                    : I.Spit.on.Your.Grave.UNRATED.2010.BRRip.Xvid.AC3-SiC.avi
Format                           : AVI
Format/Info                      : Audio Video Interleave
File size                        : 1.30 GiB
Duration                         : 1h 48mn
Overall bit rate                 : 1 713 Kbps

Video
ID                               : 0
Format                           : MPEG-4 Visual
Format profile                   : Advanced Simple@L5
Format settings, BVOP            : Yes
Format settings, QPel            : No
Format settings, GMC             : No warppoints
Format settings, Matrix          : Default (H.263)
Muxing mode                      : Packed bitstream
Codec ID                         : XVID
Codec ID/Hint                    : XviD
Duration                         : 1h 48mn
Bit rate                         : 1 321 Kbps
Width                            : 720 pixels
Height                           : 304 pixels
Display aspect ratio             : 2.35:1
Frame rate                       : 23.976 fps
Resolution                       : 8 bits
Colorimetry                      : 4:2:0
Scan type                        : Progressive
Bits/(Pixel*Frame)               : 0.252
Stream size                      : 1 023 MiB (77%)
Writing library                  : XviD 64

Audio
ID                               : 1
Format                           : AC-3
Format/Info                      : Audio Coding 3
Format_Settings_ModeExtension    : CM (complete main)
Codec ID                         : 2000
Duration                         : 1h 48mn
Bit rate mode                    : Constant
Bit rate                         : 384 Kbps
Channel(s)                       : 6 channels
Channel positions                : Front: L C R, Side: L R, LFE
Sampling rate                    : 48.0 KHz
Stream size                      : 297 MiB (22%)
Alignment                        : Aligned on interleaves
Interleave, duration             : 64 ms (1.53 video frames)
Interleave, preload duration     : 192 ms
Title                            : 6ch English

Screenshots:
[img]http://img706.imageshack.us/img706/6729/ispitonyourgraveunrated.png[/img]
[img]http://img40.imageshack.us/img40/6729/ispitonyourgraveunrated.png[/img]
[img]http://img191.imageshack.us/img191/2765/ispitonyourgraveunratedg.png[/img]
[img]http://img41.imageshack.us/img41/6729/ispitonyourgraveunrated.png[/img]
[img]http://img143.imageshack.us/img143/3074/vlcsnap2011083115h58m10.png[/img]

Note :   N/A

Source : BluRay-DEPRAViTY Thanks!!!

Enjoy!

Respects to CaptainHomey, Cyanide, CM8, Rx, THC, ELEKTRI4KA, 
Killerhz, PA, YeFsTe, BoxSlots, MrRep and everyone in the struggle...